<?xml version="1.0" standalone="no"?>
<!DOCTYPE svg PUBLIC "-//W3C//DTD SVG 20010904//EN"
 "http://www.w3.org/TR/2001/REC-SVG-20010904/DTD/svg10.dtd">
<svg version="1.0" xmlns="http://www.w3.org/2000/svg"
 width="225.000000pt" height="225.000000pt" viewBox="0 0 225.000000 225.000000"
 preserveAspectRatio="xMidYMid meet">
<metadata>
Created by potrace 1.14, written by Peter Selinger 2001-2017
</metadata>
<g transform="translate(0.000000,225.000000) scale(0.100000,-0.100000)"
fill="#000000" stroke="none">
<path d="M910 2190 c-365 -78 -657 -333 -778 -680 -47 -137 -57 -207 -56 -405
1 -160 3 -190 26 -276 84 -311 288 -556 581 -694 158 -75 233 -90 442 -90 157
0 191 3 265 23 371 101 658 389 758 761 23 86 25 116 26 276 1 198 -9 268 -56
405 -123 353 -427 614 -798 684 -111 22 -301 20 -410 -4z m643 -512 c16 -20
17 -50 15 -429 l-3 -408 -30 -32 c-57 -60 -142 -76 -221 -40 -57 26 -84 64
-84 117 0 54 43 108 99 125 39 11 122 9 154 -5 16 -8 17 6 17 207 l0 215 -92
-22 c-51 -12 -173 -42 -270 -66 l-177 -44 -3 -291 c-3 -282 -4 -291 -25 -321
-47 -66 -171 -91 -243 -48 -43 25 -80 78 -80 114 0 40 39 92 90 118 35 18 56
22 95 19 28 -3 58 -8 67 -12 16 -6 17 16 20 324 3 300 5 332 21 348 21 22 571
164 607 157 14 -3 33 -14 43 -26z"/>
</g>
</svg>
